<?xml version="1.0" encoding="utf-8"?>
<!-- Generator: Adobe Illustrator 25.0.0, SVG Export Plug-In . SVG Version: 6.00 Build 0)  -->
<svg version="1.1" id="g__icon--mission" xmlns="http://www.w3.org/2000/svg" xmlns:xlink="http://www.w3.org/1999/xlink" x="0px"
	 y="0px" viewBox="0 0 100 100" style="enable-background:new 0 0 100 100;" xml:space="preserve">
<style type="text/css">
	.st0{fill:none;stroke:#474748;stroke-width:2;stroke-linecap:round;stroke-linejoin:round;stroke-miterlimit:10;}
</style>
<path class="st0" d="M89.1,29.2c3.3,6.4,5.3,13.9,5.3,20.8c0,24.4-20,44.4-44.4,44.4S5.6,74.4,5.6,50S25.6,5.6,50,5.6
	c7.5,0,14.7,1.9,21.4,5.5 M68.6,42.2c0.8,2.5,1.7,5.3,1.7,7.8c0,11.1-9.2,20.3-20.3,20.3S29.7,61.1,29.7,50S38.9,29.7,50,29.7
	c2.8,0,5.5,0.6,8,1.7 M51.9,50L92.2,6.1 M86.4,11.7l-2-9.7 M79.1,7.8l1.9,9.7 M91.6,20.3l-9.7-1.9 M96.8,14.3l-9.7-1.9"/>
</svg>
